Coordinates
version=1
nRows=65
nColumns=12
inDegrees=yes

Units are S.I. units (second, meters, Newtons, ...)
Angles are in degrees

endheader
time	SC_y	SC_z	SC_x	AC_y	AC_z	AC_x	GH_y	GH_z	GH_yy	EL_x	PS_y
       0.0              -42.59        -0.4403          18.51          49.25         -13.49          18.46          128.7           75.0          138.7          123.6          84.12
   0.02173               -42.6        -0.4369          18.52          49.25         -13.49          18.46          128.7          74.99          138.6          123.6          84.11
   0.04345               -42.6        -0.4333          18.52          49.25         -13.49          18.45          128.7          74.98          138.6          123.5           84.1
   0.06518               -42.6        -0.4294          18.52          49.24         -13.49          18.45          128.7          74.98          138.6          123.5          84.09
    0.0869               -42.6        -0.4253          18.53          49.24         -13.49          18.44          128.7          74.97          138.6          123.5          84.08
    0.1086               -42.6        -0.4209          18.53          49.24         -13.49          18.44          128.7          74.96          138.6          123.5          84.07
    0.1304               -42.6        -0.4162          18.54          49.23         -13.49          18.43          128.7          74.95          138.6          123.5          84.05
    0.1521              -42.61        -0.4112          18.55          49.23         -13.49          18.42          128.7          74.95          138.5          123.4          84.04
    0.1738              -42.61        -0.4058          18.55          49.23         -13.49          18.41          128.7          74.94          138.5          123.4          84.02
    0.1955              -42.61        -0.4001          18.56          49.22         -13.49          18.41          128.7          74.93          138.5          123.4          84.01
    0.2173              -42.61        -0.3939          18.57          49.22         -13.49           18.4          128.7          74.92          138.5          123.4          83.99
     0.239              -42.62        -0.3872          18.57          49.21         -13.49          18.39          128.7          74.91          138.4          123.3          83.97
    0.2607              -42.62          -0.38          18.58          49.21         -13.49          18.38          128.7          74.89          138.4          123.3          83.95
    0.2824              -42.62        -0.3723          18.59           49.2         -13.49          18.37          128.7          74.88          138.4          123.3          83.93
    0.3042              -42.63        -0.3639           18.6           49.2         -13.49          18.35          128.7          74.87          138.3          123.2          83.91
    0.3259              -42.63        -0.3548          18.61          49.19         -13.49          18.34          128.7          74.85          138.3          123.2          83.89
    0.3476              -42.63        -0.3449          18.62          49.18         -13.49          18.33          128.7          74.83          138.2          123.1          83.86
    0.3693              -42.64        -0.3341          18.64          49.18         -13.49          18.31          128.7          74.82          138.2          123.1          83.83
    0.3911              -42.64        -0.3224          18.65          49.17         -13.49           18.3          128.7           74.8          138.1          123.0           83.8
    0.4128              -42.65        -0.3095          18.67          49.16         -13.49          18.28          128.7          74.77          138.1          123.0          83.76
    0.4345              -42.66        -0.2954          18.68          49.15         -13.48          18.26          128.7          74.75          138.0          122.9          83.72
    0.4562              -42.66        -0.2798           18.7          49.14         -13.48          18.23          128.7          74.72          138.0          122.8          83.68
     0.478              -42.67        -0.2626          18.72          49.13         -13.48          18.21          128.7          74.69          137.9          122.8          83.63
    0.4997              -42.68        -0.2435          18.74          49.11         -13.48          18.18          128.6          74.66          137.8          122.7          83.58
    0.5214              -42.69        -0.2224          18.77           49.1         -13.48          18.15          128.6          74.63          137.7          122.6          83.52
    0.5431               -42.7        -0.1987          18.79          49.08         -13.48          18.12          128.6          74.59          137.6          122.5          83.46
    0.5649              -42.71        -0.1723          18.83          49.06         -13.48          18.08          128.6          74.54          137.5          122.3          83.39
    0.5866              -42.72        -0.1425          18.86          49.04         -13.47          18.04          128.6          74.49          137.4          122.2          83.31
    0.6083              -42.73        -0.1089           18.9          49.02         -13.47          17.99          128.6          74.43          137.2          122.0          83.21
      0.63              -42.75       -0.07066          18.94          48.99         -13.47          17.93          128.6          74.37          137.1          121.9          83.11
    0.6518              -42.77       -0.02706           19.0          48.96         -13.47          17.87          128.6          74.29          136.9          121.7          82.99
    0.6735              -42.79        0.02297          19.05          48.92         -13.46           17.8          128.6          74.21          136.7          121.4          82.85
    0.6952              -42.81        0.08074          19.12          48.88         -13.46          17.72          128.6          74.11          136.4          121.2           82.7
    0.7169              -42.84         0.1479           19.2          48.84         -13.46          17.62          128.6           74.0          136.1          120.9          82.51
    0.7387              -42.88         0.2264          19.29          48.78         -13.45          17.51          128.5          73.86          135.8          120.5           82.3
    0.7604              -42.91          0.319           19.4          48.71         -13.45          17.38          128.5          73.71          135.4          120.1          82.05
    0.7821              -42.96          0.429          19.53          48.64         -13.44          17.22          128.5          73.52          134.9          119.6          81.75
    0.8038              -43.02         0.5609          19.68          48.54         -13.43          17.03          128.5           73.3          134.3          119.0          81.39
    0.8256              -43.08         0.7204          19.87          48.43         -13.42           16.8          128.4          73.03          133.6          118.2          80.95
    0.8473              -43.17         0.9154           20.1          48.29         -13.41          16.52          128.4           72.7          132.8          117.3          80.42
     0.869              -43.27          1.156          20.38          48.12         -13.39          16.18          128.3          72.29          131.8          116.2          79.76
    0.8907              -43.39          1.456          20.73          47.91         -13.37          15.75          128.2          71.78          130.5          114.9          78.94
    0.9125              -43.55          1.834          21.18          47.64         -13.35           15.2          128.1          71.14          128.8          113.1          77.91
    0.9342              -43.76          2.314          21.74           47.3         -13.32          14.51          128.0          70.32          126.8          110.9           76.6
    0.9559              -44.01          2.929          22.46          46.87         -13.28          13.63          127.9          69.28          124.1          108.1          74.92
    0.9776              -44.35          3.718          23.38          46.31         -13.23           12.5          127.7          67.94          120.7          104.5          72.77
    0.9994              -44.77          4.726          24.56           45.6         -13.16          11.06          127.5          66.23          116.3          99.85          70.01
     1.021              -45.31          5.993          26.05           44.7         -13.08          9.239          127.1          64.08          110.8          94.03          66.55
     1.043              -45.96          7.538          27.86          43.61         -12.98          7.024          126.8          61.46          104.2          86.94          62.34
     1.065              -46.71          9.328          29.95          42.34         -12.87          4.457          126.3          58.42          96.43          78.72          57.45
     1.086              -47.53          11.27          32.22          40.97         -12.74          1.678          125.9          55.13          88.06          69.82          52.16
     1.108              -48.35           13.2          34.49           39.6         -12.62         -1.101          125.4          51.84          79.68          60.92          46.86
      1.13               -49.1          14.99          36.59          38.33          -12.5         -3.668          125.0           48.8          71.94           52.7          41.98
     1.151              -49.75          16.54           38.4          37.24         -12.41         -5.883          124.6          46.18          65.26          45.61          37.76
     1.173              -50.28          17.81          39.89          36.34         -12.32           -7.7          124.3          44.03          59.79           39.8           34.3
     1.195              -50.71          18.81          41.07          35.63         -12.26         -9.145          124.1          42.32          55.43          35.17          31.55
     1.217              -51.04           19.6          41.99          35.07         -12.21         -10.28          123.9          40.98          52.02          31.54          29.39
     1.238               -51.3          20.22          42.71          34.64         -12.17         -11.16          123.7          39.94          49.36          28.72          27.71
      1.26               -51.5           20.7          43.27           34.3         -12.14         -11.85          123.6          39.12          47.28          26.52           26.4
     1.282              -51.66          21.08          43.72          34.03         -12.11         -12.39          123.5          38.48          45.65          24.78          25.37
     1.304              -51.79          21.38          44.07          33.82          -12.1         -12.82          123.4          37.97          44.35           23.4          24.55
     1.325              -51.89          21.62          44.35          33.65         -12.08         -13.16          123.4          37.56          43.31           22.3          23.89
     1.347              -51.97          21.81          44.58          33.51         -12.07         -13.44          123.3          37.23          42.47           21.4          23.36
     1.369              -52.04          21.97          44.76           33.4         -12.06         -13.67          123.3          36.96          41.78          20.67          22.93
      1.39               -52.1           22.1          44.92           33.3         -12.05         -13.86          123.3          36.74          41.21          20.07          22.57
